<?xml version="1.0" standalone="no"?>
<!DOCTYPE svg PUBLIC "-//W3C//DTD SVG 20010904//EN"
 "http://www.w3.org/TR/2001/REC-SVG-20010904/DTD/svg10.dtd">
<svg version="1.0" xmlns="http://www.w3.org/2000/svg"
 width="200.000000pt" height="200.000000pt" viewBox="0 0 200.000000 200.000000"
 preserveAspectRatio="xMidYMid meet">

<g transform="translate(0.000000,200.000000) scale(0.100000,-0.100000)"
fill="#000000" stroke="none">
<path d="M1460 1790 c0 -5 -8 -10 -18 -10 -22 0 -42 -19 -42 -41 0 -13 -15
-17 -82 -22 -46 -4 -109 -7 -140 -7 -31 0 -60 -4 -63 -10 -3 -5 -31 -10 -61
-10 -30 0 -54 -4 -54 -10 0 -5 -18 -10 -40 -10 -22 0 -40 -4 -40 -10 0 -5 -9
-10 -20 -10 -11 0 -35 -9 -55 -20 -20 -11 -42 -20 -50 -20 -8 0 -15 -4 -15
-10 0 -5 -8 -10 -18 -10 -10 0 -24 -10 -32 -21 -8 -12 -30 -37 -49 -56 -18
-19 -31 -37 -27 -40 3 -3 27 18 55 46 27 28 57 51 65 51 9 0 16 5 16 10 0 6 9
10 20 10 11 0 20 4 20 9 0 6 20 13 45 17 25 3 45 10 45 15 0 5 18 9 40 9 22 0
40 5 40 10 0 6 23 9 53 9 31 -1 40 -4 22 -6 -16 -2 -61 -14 -100 -26 -67 -20
-97 -41 -135 -96 -8 -12 -22 -21 -32 -21 -10 0 -18 -4 -18 -10 0 -5 -11 -10
-25 -10 -14 0 -25 -4 -25 -10 0 -5 -10 -10 -22 -10 -13 0 -36 -7 -52 -15 -16
-9 -31 -13 -34 -10 -3 3 0 5 6 5 7 0 12 5 12 10 0 15 -15 12 -38 -9 -12 -10
-22 -26 -22 -35 0 -9 -4 -16 -10 -16 -5 0 -10 -9 -10 -21 0 -33 -24 -49 -77
-49 -56 0 -80 -15 -58 -36 7 -8 21 -14 29 -14 9 0 16 -4 16 -10 0 -5 14 -10
30 -10 17 0 30 -4 30 -10 0 -5 7 -10 15 -10 8 0 15 -4 15 -10 0 -5 9 -10 20
-10 11 0 20 -4 20 -10 0 -5 9 -10 20 -10 26 0 26 -12 0 -30 -11 -8 -20 -20
-20 -27 0 -7 -4 -13 -10 -13 -5 0 -10 -9 -10 -19 0 -11 -6 -21 -12 -23 -9 -3
-8 -9 4 -21 24 -25 28 -21 28 23 0 22 5 40 10 40 6 0 10 5 10 11 0 16 26 39
44 39 9 0 16 5 16 10 0 6 42 10 105 10 63 0 105 -4 105 -10 0 -5 14 -10 30
-10 17 0 30 -4 30 -10 0 -5 9 -10 20 -10 47 0 3 -40 -47 -41 -23 -1 -29 -3
-15 -6 12 -2 22 -9 22 -14 0 -14 50 -11 66 5 10 11 11 15 1 19 -6 2 -9 8 -5
12 10 10 108 -37 108 -52 0 -6 -12 -16 -27 -21 -18 -7 -22 -11 -10 -11 19 -1
23 -16 7 -26 -6 -3 -10 -49 -10 -103 0 -96 -1 -97 -27 -109 -15 -7 -40 -13
-55 -13 -15 0 -28 -4 -28 -10 0 -6 -37 -10 -90 -10 -53 0 -90 4 -90 10 0 6 -9
10 -20 10 -11 0 -20 5 -20 10 0 6 -7 10 -15 10 -8 0 -15 4 -15 9 0 5 -9 13
-20 16 -16 5 -20 15 -20 46 0 21 -4 39 -10 39 -5 0 -10 18 -10 40 0 22 5 40
10 40 6 0 10 18 10 40 0 22 5 40 10 40 6 0 10 -4 10 -10 0 -5 4 -10 9 -10 9 0
19 60 13 79 -7 22 -22 10 -22 -19 0 -23 -4 -30 -20 -30 -17 0 -20 -7 -20 -40
0 -22 -4 -40 -10 -40 -5 0 -10 -20 -10 -45 0 -25 5 -45 10 -45 6 0 10 -16 10
-36 0 -27 7 -43 30 -64 40 -38 38 -50 -10 -50 -22 0 -40 5 -40 10 0 6 -7 10
-15 10 -18 0 -65 43 -65 60 0 5 -4 10 -10 10 -6 0 -10 31 -10 72 0 59 4 76 21
94 19 21 20 24 6 38 -22 23 -27 20 -27 -13 0 -17 -5 -33 -10 -36 -15 -9 -13
-152 3 -158 8 -3 2 -12 -15 -26 -15 -12 -34 -36 -42 -53 -18 -34 -22 -128 -6
-128 6 0 10 -7 10 -15 0 -27 85 -103 124 -110 20 -4 36 -13 36 -20 0 -8 17
-16 40 -20 32 -5 40 -11 40 -29 0 -30 34 -56 75 -56 29 0 35 -4 35 -21 0 -15
5 -19 19 -14 27 8 101 -64 101 -99 0 -14 -4 -26 -10 -26 -5 0 -10 -9 -10 -20
0 -19 -7 -20 -90 -20 -83 0 -90 1 -90 20 0 18 7 20 60 20 56 0 77 11 48 24
-10 5 -10 7 0 12 14 7 17 84 2 84 -5 0 -10 -16 -10 -36 0 -44 -19 -64 -60 -64
-30 0 -60 -19 -60 -38 0 -5 8 -16 18 -25 16 -14 44 -17 181 -17 127 0 166 3
177 14 16 17 19 66 4 66 -5 0 -10 9 -10 20 0 11 -4 20 -10 20 -5 0 -10 9 -10
20 0 11 -4 20 -10 20 -5 0 -10 7 -10 15 0 11 12 15 46 15 40 0 51 5 80 36 20
20 34 46 34 60 0 17 5 24 20 24 11 0 20 6 20 14 0 9 15 17 40 21 22 4 40 11
40 16 0 4 16 24 35 43 19 20 35 42 35 51 0 8 5 15 10 15 6 0 10 33 10 80 0 47
-4 80 -10 80 -5 0 -10 5 -10 11 0 6 -13 24 -30 39 -26 25 -30 35 -30 84 0 31
5 56 10 56 6 0 10 9 10 20 0 11 5 20 10 20 6 0 10 18 10 40 0 22 -4 40 -10 40
-5 0 -10 -15 -10 -34 0 -18 -7 -47 -15 -62 -10 -20 -15 -24 -15 -11 0 10 -12
30 -27 45 -24 24 -35 27 -102 28 -55 2 -78 6 -87 18 -6 9 -19 16 -28 16 -9 0
-16 4 -16 9 0 5 -16 12 -35 15 -19 4 -35 11 -35 16 0 6 -9 10 -20 10 -11 0
-20 5 -20 10 0 6 -13 10 -30 10 -16 0 -30 5 -30 10 0 6 -9 10 -20 10 -11 0
-20 5 -20 10 0 6 5 10 10 10 18 0 11 32 -12 51 -11 11 -36 19 -54 19 -26 0
-36 6 -46 28 -10 19 -21 28 -43 29 -17 1 -24 0 -17 -3 14 -7 16 -34 2 -34 -5
0 -10 5 -10 10 0 6 -4 10 -10 10 -5 0 -10 -12 -10 -26 0 -24 -3 -26 -31 -20
-17 3 -35 6 -40 6 -21 0 -6 43 25 75 49 49 131 75 232 75 93 0 185 -17 197
-37 5 -7 12 -11 16 -9 4 3 25 -2 47 -10 21 -8 47 -17 57 -21 9 -3 17 -11 17
-18 0 -8 9 -17 20 -20 11 -3 20 -13 20 -21 0 -8 4 -14 9 -14 16 0 71 -58 71
-74 0 -9 4 -16 9 -16 6 0 13 -20 17 -45 7 -50 10 -52 42 -26 18 16 22 29 22
75 0 31 -4 56 -10 56 -6 0 -10 28 -10 64 0 36 -4 68 -10 71 -5 3 -10 31 -10
61 0 30 5 54 10 54 6 0 10 7 10 15 0 9 11 27 25 40 24 25 55 33 55 15 0 -5 14
-10 30 -10 17 0 30 5 30 10 0 6 7 10 16 10 20 0 44 24 44 44 0 9 5 16 10 16 6
0 10 11 10 25 0 14 -4 25 -10 25 -5 0 -10 11 -10 25 0 20 -6 27 -30 32 -16 3
-30 9 -30 14 0 5 -13 9 -30 9 -16 0 -30 -4 -30 -10z m75 -22 c14 -6 25 -19 25
-30 0 -10 5 -18 10 -18 6 0 10 -11 10 -25 0 -14 -4 -25 -10 -25 -5 0 -10 -9
-10 -20 0 -13 -7 -20 -20 -20 -11 0 -20 -4 -20 -10 0 -5 -13 -10 -29 -10 -21
0 -32 6 -36 20 -4 11 -18 34 -33 52 -18 21 -23 33 -14 36 6 2 12 12 12 23 0
34 66 49 115 27z m-942 -463 c20 -4 37 -11 37 -16 0 -5 23 -9 50 -9 28 0 50 5
50 10 0 6 22 10 48 10 41 0 51 -4 62 -24 11 -21 10 -27 -3 -40 -12 -13 -39
-16 -121 -16 -64 0 -106 4 -106 10 0 6 -9 10 -20 10 -11 0 -20 5 -20 10 0 6
-7 10 -15 10 -8 0 -15 5 -15 10 0 6 -13 10 -30 10 -16 0 -30 5 -30 10 0 6 -9
10 -21 10 -12 0 -17 4 -13 11 6 11 65 8 147 -6z m657 -225 c0 -5 7 -10 16 -10
20 0 44 -24 44 -44 0 -9 5 -16 10 -16 6 0 10 -33 10 -80 0 -47 -4 -80 -10 -80
-5 0 -10 -5 -10 -10 0 -17 -47 -60 -65 -60 -8 0 -15 -4 -15 -10 0 -5 -19 -10
-42 -10 -78 1 -98 34 -98 158 0 99 18 152 51 152 10 0 19 5 19 10 0 6 20 10
45 10 25 0 45 -4 45 -10z m-66 -571 c6 -45 4 -55 -15 -75 -17 -19 -33 -24 -68
-24 -40 0 -48 4 -58 27 -7 15 -13 44 -13 65 0 36 2 38 30 38 17 0 30 5 30 10
0 6 20 10 44 10 l43 0 7 -51z m-414 -72 c11 -4 9 -6 -5 -6 -28 -1 -49 14 -40
28 5 9 10 8 18 -2 7 -8 19 -17 27 -20z m271 -87 c5 0 9 -9 9 -20 0 -11 5 -20
10 -20 6 0 10 -9 10 -20 0 -11 5 -20 10 -20 6 0 10 -13 10 -30 l0 -30 -75 0
c-68 0 -75 2 -75 20 0 17 7 20 40 20 22 0 40 5 40 10 0 6 -4 10 -10 10 -5 0
-10 14 -10 30 0 17 -4 30 -10 30 -5 0 -10 -13 -10 -30 0 -16 -4 -30 -10 -30
-5 0 -10 14 -10 30 0 17 5 30 10 30 6 0 10 9 10 19 0 11 9 23 20 26 11 3 21
14 22 23 0 9 3 2 5 -15 2 -18 8 -33 14 -33z"/>
<path d="M968 1363 c14 -6 16 -33 2 -33 -5 0 -10 5 -10 10 0 6 -4 10 -10 10
-15 0 -12 -39 4 -56 8 -8 26 -14 40 -14 28 0 41 27 32 66 -5 19 -13 24 -39 23
-17 0 -26 -3 -19 -6z"/>
<path d="M510 1164 c0 -56 3 -75 13 -71 11 3 12 21 8 120 0 15 -5 27 -11 27
-6 0 -10 -32 -10 -76z"/>
<path d="M871 1104 c0 -11 3 -14 6 -6 3 7 2 16 -1 19 -3 4 -6 -2 -5 -13z"/>
<path d="M778 1073 c7 -3 16 -2 19 1 4 3 -2 6 -13 5 -11 0 -14 -3 -6 -6z"/>
<path d="M1013 1073 c9 -2 23 -2 30 0 6 3 -1 5 -18 5 -16 0 -22 -2 -12 -5z"/>
<path d="M818 1053 c7 -3 16 -2 19 1 4 3 -2 6 -13 5 -11 0 -14 -3 -6 -6z"/>
<path d="M900 1051 c0 -5 -12 -12 -27 -14 -16 -2 -2 -5 30 -6 31 0 57 -5 57
-11 0 -5 -4 -10 -10 -10 -15 0 -12 -70 4 -86 8 -8 26 -14 41 -14 35 0 55 22
55 60 0 43 -18 58 -79 66 -28 4 -51 10 -51 15 0 5 -4 9 -10 9 -5 0 -10 -4 -10
-9z m80 -71 c0 -5 -4 -10 -10 -10 -5 0 -10 5 -10 10 0 6 5 10 10 10 6 0 10 -4
10 -10z m40 -40 c0 -5 -4 -10 -10 -10 -5 0 -10 5 -10 10 0 6 5 10 10 10 6 0
10 -4 10 -10z"/>
<path d="M690 1015 c0 -8 -4 -15 -10 -15 -15 0 -12 -60 4 -76 8 -8 24 -14 36
-14 17 0 20 4 15 23 -5 17 -4 18 4 7 5 -8 12 -12 15 -10 11 12 9 69 -3 84 -17
20 -61 21 -61 1z m20 -35 c0 -5 -4 -10 -10 -10 -5 0 -10 5 -10 10 0 6 5 10 10
10 6 0 10 -4 10 -10z"/>
<path d="M840 861 c0 -5 -8 -11 -17 -13 -10 -2 3 -5 28 -5 48 -1 79 10 65 24
-5 4 -11 2 -13 -4 -5 -15 -43 -17 -43 -3 0 6 -4 10 -10 10 -5 0 -10 -4 -10 -9z"/>
</g>
</svg>
